HIERARCHY
ROOT Hips
{
  OFFSET 0 0.240689 0
  CHANNELS 6 Xposition Yposition Zposition Zrotation Xrotation Yrotation
  JOINT Bip01_Spine0
  {
    OFFSET 0 -24.7459 49.7988
    CHANNELS 6 Xposition Yposition Zposition Zrotation Xrotation Yrotation
    JOINT Bip01_Pelvis
    {
      OFFSET 0 0 0
      CHANNELS 6 Xposition Yposition Zposition Zrotation Xrotation Yrotation
      JOINT Bip01_Spine0_Tail
      {
        OFFSET -6.47486 -3.86022 0
        CHANNELS 6 Xposition Yposition Zposition Zrotation Xrotation Yrotation
        JOINT Bip01_Spine0_Tail1
        {
          OFFSET 10.3837 -0.00825882 0
          CHANNELS 6 Xposition Yposition Zposition Zrotation Xrotation Yrotation
          JOINT Bip01_Spine0_Tail2
          {
            OFFSET 10.3837 -0.00826263 0
            CHANNELS 6 Xposition Yposition Zposition Zrotation Xrotation Yrotation
            JOINT Bip01_Spine0_Tail3
            {
              OFFSET 10.3837 -0.00825882 0
              CHANNELS 6 Xposition Yposition Zposition Zrotation Xrotation Yrotation
              JOINT Bip01_Spine0_Tail4
              {
                OFFSET 10.3837 -0.00826263 0
                CHANNELS 6 Xposition Yposition Zposition Zrotation Xrotation Yrotation
                End Site
                {
                  OFFSET 0 0 0
                }
              }
            }
          }
        }
      }
      JOINT Bip01_R_Thigh
      {
        OFFSET 0 -1.52588e-005 -8.75617
        CHANNELS 6 Xposition Yposition Zposition Zrotation Xrotation Yrotation
        JOINT Bip01_R_Calf
        {
          OFFSET 19.7638 0 0
          CHANNELS 6 Xposition Yposition Zposition Zrotation Xrotation Yrotation
          JOINT Bip01_R_Foot
          {
            OFFSET 18.6534 0 0
            CHANNELS 6 Xposition Yposition Zposition Zrotation Xrotation Yrotation
            JOINT Bip01_R_Toe0
            {
              OFFSET 5.09145 13.9567 0
              CHANNELS 6 Xposition Yposition Zposition Zrotation Xrotation Yrotation
              JOINT Bip01_R_Toe01
              {
                OFFSET 4.28803 0 0
                CHANNELS 6 Xposition Yposition Zposition Zrotation Xrotation Yrotation
                JOINT Bip01_R_Toe02
                {
                  OFFSET 3.85801 0 0
                  CHANNELS 6 Xposition Yposition Zposition Zrotation Xrotation Yrotation
                  End Site
                  {
                    OFFSET 0 0 0
                  }
                }
              }
            }
          }
        }
      }
      JOINT Bip01_L_Thigh
      {
        OFFSET 0 1.52588e-005 8.75617
        CHANNELS 6 Xposition Yposition Zposition Zrotation Xrotation Yrotation
        JOINT Bip01_L_Calf
        {
          OFFSET 19.7638 0 0
          CHANNELS 6 Xposition Yposition Zposition Zrotation Xrotation Yrotation
          JOINT Bip01_L_Foot
          {
            OFFSET 18.6534 0 0
            CHANNELS 6 Xposition Yposition Zposition Zrotation Xrotation Yrotation
            JOINT Bip01_L_Toe0
            {
              OFFSET 5.09144 13.9567 0
              CHANNELS 6 Xposition Yposition Zposition Zrotation Xrotation Yrotation
              JOINT Bip01_L_Toe01
              {
                OFFSET 4.28802 0 0
                CHANNELS 6 Xposition Yposition Zposition Zrotation Xrotation Yrotation
                JOINT Bip01_L_Toe02
                {
                  OFFSET 3.85801 0 0
                  CHANNELS 6 Xposition Yposition Zposition Zrotation Xrotation Yrotation
                  End Site
                  {
                    OFFSET 0 0 0
                  }
                }
              }
            }
          }
        }
      }
      JOINT Bip01_Spine
      {
        OFFSET 9.14835 -0.00640869 -1.1e-005
        CHANNELS 6 Xposition Yposition Zposition Zrotation Xrotation Yrotation
        JOINT Bip01_Spine1
        {
          OFFSET 8.04366 -0.00638199 0
          CHANNELS 6 Xposition Yposition Zposition Zrotation Xrotation Yrotation
          JOINT Bip01_Spine2
          {
            OFFSET 8.04367 -0.00639343 0
            CHANNELS 6 Xposition Yposition Zposition Zrotation Xrotation Yrotation
            JOINT Bip01_Spine3
            {
              OFFSET 8.04304 -0.00831222 0
              CHANNELS 6 Xposition Yposition Zposition Zrotation Xrotation Yrotation
              JOINT Bip01_Neck
              {
                OFFSET 10.6685 1.06813 0
                CHANNELS 6 Xposition Yposition Zposition Zrotation Xrotation Yrotation
                JOINT Bip01_R_Clavicle
                {
                  OFFSET -3.21661 -4.89635 -9.04802
                  CHANNELS 6 Xposition Yposition Zposition Zrotation Xrotation Yrotation
                  JOINT Bip01_R_UpperArm
                  {
                    OFFSET 19.0492 0 0
                    CHANNELS 6 Xposition Yposition Zposition Zrotation Xrotation Yrotation
                    JOINT Bip01_R_Forearm
                    {
                      OFFSET 10.3706 0 0
                      CHANNELS 6 Xposition Yposition Zposition Zrotation Xrotation Yrotation
                      JOINT Bip01_R_Hand
                      {
                        OFFSET 22.8632 0 0
                        CHANNELS 6 Xposition Yposition Zposition Zrotation Xrotation Yrotation
                        JOINT Bip01_R_Finger0
                        {
                          OFFSET 6.48259 0.103651 0.504496
                          CHANNELS 6 Xposition Yposition Zposition Zrotation Xrotation Yrotation
                          JOINT Bip01_R_Finger01
                          {
                            OFFSET 3.66847 0 0
                            CHANNELS 6 Xposition Yposition Zposition Zrotation Xrotation Yrotation
                            End Site
                            {
                              OFFSET 0 0 0
                            }
                          }
                        }
                      }
                    }
                  }
                }
                JOINT Bip01_L_Clavicle
                {
                  OFFSET -3.21661 -4.89641 9.04797
                  CHANNELS 6 Xposition Yposition Zposition Zrotation Xrotation Yrotation
                  JOINT Bip01_L_UpperArm
                  {
                    OFFSET 19.0492 0 0
                    CHANNELS 6 Xposition Yposition Zposition Zrotation Xrotation Yrotation
                    JOINT Bip01_L_Forearm
                    {
                      OFFSET 10.3706 0 0
                      CHANNELS 6 Xposition Yposition Zposition Zrotation Xrotation Yrotation
                      JOINT Bip01_L_Hand
                      {
                        OFFSET 22.8631 0 0
                        CHANNELS 6 Xposition Yposition Zposition Zrotation Xrotation Yrotation
                        JOINT Bip01_L_Finger0
                        {
                          OFFSET 6.48257 0.103655 -0.504492
                          CHANNELS 6 Xposition Yposition Zposition Zrotation Xrotation Yrotation
                          JOINT Bip01_L_Finger01
                          {
                            OFFSET 3.66844 0 0
                            CHANNELS 6 Xposition Yposition Zposition Zrotation Xrotation Yrotation
                            End Site
                            {
                              OFFSET 0 0 0
                            }
                          }
                        }
                      }
                    }
                  }
                }
                JOINT Bip01_Neck1
                {
                  OFFSET 7.52459 -0.00656509 0
                  CHANNELS 6 Xposition Yposition Zposition Zrotation Xrotation Yrotation
                  JOINT Bip01_Neck2
                  {
                    OFFSET 8.4783 -0.00588226 0
                    CHANNELS 6 Xposition Yposition Zposition Zrotation Xrotation Yrotation
                    JOINT Bip01_Head
                    {
                      OFFSET 8.41606 0 0
                      CHANNELS 6 Xposition Yposition Zposition Zrotation Xrotation Yrotation
                      JOINT EyesBlue
                      {
                        OFFSET 0 0 0
                        CHANNELS 6 Xposition Yposition Zposition Zrotation Xrotation Yrotation
                        JOINT EyesBlue_2
                        {
                          OFFSET 0 -0.500007 0
                          CHANNELS 6 Xposition Yposition Zposition Zrotation Xrotation Yrotation
                          End Site
                          {
                            OFFSET 0 0 0
                          }
                        }
                      }
                      JOINT Bip01_Head2_Eyeleds
                      {
                        OFFSET 6.52751 7.61746 2.2e-005
                        CHANNELS 6 Xposition Yposition Zposition Zrotation Xrotation Yrotation
                        End Site
                        {
                          OFFSET 0 0 0
                        }
                      }
                      JOINT Bip01_Head_Muzzle
                      {
                        OFFSET 2.88628 13.9448 3.88994
                        CHANNELS 6 Xposition Yposition Zposition Zrotation Xrotation Yrotation
                        End Site
                        {
                          OFFSET 0 0 0
                        }
                      }
                      JOINT Bip01_Head1_Jaw
                      {
                        OFFSET 0.271065 1.32405 0
                        CHANNELS 6 Xposition Yposition Zposition Zrotation Xrotation Yrotation
                        JOINT _Bip01_Head11_TungeControler
                        {
                          OFFSET 4.61616 5.82872 0
                          CHANNELS 6 Xposition Yposition Zposition Zrotation Xrotation Yrotation
                          JOINT _Bip01_Ponytail3_tunge
                          {
                            OFFSET 5.17785 2.98805 0
                            CHANNELS 6 Xposition Yposition Zposition Zrotation Xrotation Yrotation
                            JOINT Bip01_Ponytail31
                            {
                              OFFSET 5.57569 0 0
                              CHANNELS 6 Xposition Yposition Zposition Zrotation Xrotation Yrotation
                              JOINT Bip01_Ponytail32
                              {
                                OFFSET 2.93165 0 0
                                CHANNELS 6 Xposition Yposition Zposition Zrotation Xrotation Yrotation
                                JOINT Bip01_Ponytail3Nub
                                {
                                  OFFSET 3.30155 0 0
                                  CHANNELS 6 Xposition Yposition Zposition Zrotation Xrotation Yrotation
                                  End Site
                                  {
                                    OFFSET 0 0 0
                                  }
                                }
                              }
                            }
                          }
                        }
                        JOINT Bip01_Head_JawNub
                        {
                          OFFSET 15.5776 -0.000389099 0
                          CHANNELS 6 Xposition Yposition Zposition Zrotation Xrotation Yrotation
                          End Site
                          {
                            OFFSET 0 0 0
                          }
                        }
                      }
                      JOINT Bip01_Ponytail2
                      {
                        OFFSET 9.40334 1.03973 -6.51764
                        CHANNELS 6 Xposition Yposition Zposition Zrotation Xrotation Yrotation
                        JOINT Bip01_Ponytail21
                        {
                          OFFSET 2.77018 -0.00640106 1.33514e-005
                          CHANNELS 6 Xposition Yposition Zposition Zrotation Xrotation Yrotation
                          End Site
                          {
                            OFFSET 0 0 0
                          }
                        }
                      }
                      JOINT Bip01_Ponytail1
                      {
                        OFFSET 9.40368 1.03969 6.51768
                        CHANNELS 6 Xposition Yposition Zposition Zrotation Xrotation Yrotation
                        JOINT Bip01_Ponytail11
                        {
                          OFFSET 2.77018 -0.00640487 0
                          CHANNELS 6 Xposition Yposition Zposition Zrotation Xrotation Yrotation
                          End Site
                          {
                            OFFSET 0 0 0
                          }
                        }
                      }
                    }
                  }
                }
              }
            }
          }
        }
      }
    }
  }
}
MOTION
Frames:	4
Frame Time:	0.0333333
0 0 -1e-006 -0 -90 -0 -0.262526 -25.6878 50.464 86.482 -3.50174e-015 90 0 0 0 -90 -3.50835e-015 -90 -6.45943 -3.86064 0.440312 136.766 2.17603 -4.45359 10.3793 -0.007213 7.00001e-006 -26.2226 -0.523271 4.35722 10.3834 -0.00827 7.0079e-011 -12.3215 0.359238 -1.64414 10.3853 -0.008037 3.50001e-005 16.211 -1.88007 -6.63078 10.3848 -0.008144 8.00011e-006 13.1216 -0.382416 -1.64012 9e-006 -1.5e-005 -8.75617 -102.007 -11.0019 172.423 19.7638 -3.55271e-015 3.55271e-015 -64.1244 0.0001619 0.000819278 18.6534 -3e-006 -3.90798e-014 -29.1397 0.175634 4.51961 5.09143 13.9567 -2.45364e-007 115.624 3.12384 1.62523 4.288 -3.55271e-015 7.10543e-015 53.6716 8.43266 1.28952 3.85799 -4.44089e-015 3.55271e-015 -45 2.39274e-005 3.8333e-005 -1.5e-005 1.1e-005 8.75617 -113.715 -4.17472 -179.796 19.7638 1.77636e-015 4.44089e-015 -66.1856 0.000515451 0.00275043 18.6534 3e-006 1e-006 -27.7322 -0.314202 -8.77392 5.09143 13.9567 -7.83979e-007 115 1.84263e-006 5.00001 4.288 -1e-006 2.4869e-014 51.474 -6.03 0.26355 3.85799 -3.606e-013 -1e-006 -45 -2.59875e-005 -2.78092e-005 9.1272 -0.006408 -0.622128 2.07273 0.0521296 1.44668 8.04366 -0.006404 -3.83281e-010 4.60215e-005 3.51361e-005 -2.45173 8.04362 -0.006401 -1.04729e-009 -2.96386 0.126951 -2.44844 8.04302 -0.008319 -9.92316e-007 -5.39534 0.379847 -3.97229 10.67 1.06797 1.89685e-006 -18.1814 6.18519 -10.4762 -4.26616 -6.10368 -7.79217 139.931 -76.1582 55.6746 19.0492 0 7.10542e-015 99.6227 4.00121 -109.102 10.3706 -1.24345e-014 -6.21725e-015 -57.4219 0.000669881 0.00218658 22.8631 -7.10543e-015 2.66453e-015 -17.4074 -0.029631 -3.20123 6.48257 0.103655 0.504497 -68.7322 -2.18865 -14.2873 3.66843 1e-006 3.05e-012 34.6071 0.000175555 -9.06669e-005 -0.997405 -4.14963 9.89845 -81.1274 77.9604 164.43 19.0492 1.77636e-015 2.13163e-014 78.3708 -10.1934 92.8132 10.3706 1e-006 -1.01252e-013 -58.8752 0.000866423 0.00314004 22.8631 7.10543e-015 -2.66453e-015 -13.5058 -8.95041 -8.13927 6.48256 0.103653 -0.504496 -75.9429 0.955882 15.4702 3.66843 1e-006 -3e-006 40.107 6.36129e-005 -4.26947e-005 7.52562 -0.006732 -7.59992e-005 -3.38308 6.31119 -10.4013 8.47688 -0.00645 -7.59988e-005 16.775 6.30171 -10.4071 8.41605 3e-006 -2.8777e-013 -65.6122 23.0896 -6.10158 -7e-006 1e-006 -3e-006 -23.1098 1.37701e-015 90 -6.2585e-007 -0.5 -1.03773e-006 180 90 -90 0 0 0 -113.549 -1.52588e-005 -180 2.8863 13.9448 3.88993 -22.989 1.3702e-015 90 0 0 0 -78.6324 -7.01671e-015 -180 0 0 0 -97.2224 1.33624e-005 -1.02856e-005 0 0 0 107.469 1.88087 -5.08693 0 0 0 1.85193 6.75041e-007 -7.47169e-008 0 0 0 -24.7498 -6.24494e-006 6.84829e-007 0 0 0 -26.1943 1.51755e-008 3.41235e-006 15.5776 -0.000396 -7.00003e-006 3.18055e-015 -1.59028e-015 -3.18055e-015 9.40333 1.03973 -6.51766 -18.5238 16.2497 17.0383 2.77018 -0.006404 -5.50003e-005 2.38884 -0.33377 -7.94957 9.40367 1.03969 6.5177 -18.5277 -16.2472 -16.5991 2.77016 -0.006404 4.70013e-005 2.38367 0.351743 8.38915 
0 0 -1e-006 -0 -90 -0 -0.262526 -25.673 50.464 86.482 -3.50174e-015 90 0 0 0 -90 -3.50835e-015 -90 -6.45943 -3.86064 0.440312 136.89 2.16852 -4.1908 10.3793 -0.007213 7.00001e-006 -26.0995 -0.509464 4.35733 10.3834 -0.00827 6.33316e-011 -12.0633 0.296856 -1.38873 10.3853 -0.008037 3.50001e-005 16.3383 -1.88268 -6.31886 10.3848 -0.008144 8.0001e-006 13.2462 -0.326175 -1.38539 9e-006 -1.5e-005 -8.75617 -101.847 -11.0257 172.454 19.7638 -1.77636e-015 7.10543e-015 -64.0525 0.000162911 0.00081907 18.6534 -3e-006 -3.90798e-014 -28.8272 0.190093 4.51782 5.09143 13.9567 -2.20164e-007 115.396 3.11736 1.63762 4.288 1.42108e-014 -3.55271e-015 53.6716 8.43266 1.28952 3.85799 -1.33227e-014 1.42109e-014 -45 2.40182e-005 3.84152e-005 -1.5e-005 1.1e-005 8.75617 -113.457 -4.1616 -179.797 19.7638 -8.88178e-015 -3.55271e-015 -65.9323 0.000527606 0.00274812 18.6534 3e-006 1e-006 -27.5028 -0.370144 -8.76213 5.09143 13.9567 -7.74691e-007 115 1.83684e-006 5.00001 4.288 -1e-006 2.84217e-014 51.474 -6.03 0.26355 3.85799 -3.33067e-013 -1e-006 -45 -2.5101e-005 -2.69443e-005 9.1272 -0.006408 -0.622128 2.04515 0.0514332 1.44671 8.04366 -0.006404 -3.79688e-010 4.60226e-005 3.51284e-005 -2.45173 8.04362 -0.006401 -1.04454e-009 -2.61112 0.111896 -2.44918 8.04302 -0.008319 -9.8806e-007 -5.59774 0.391814 -3.95004 10.67 1.06797 1.89568e-006 -18.36 6.21796 -10.4569 -4.24698 -6.11704 -7.79217 140.111 -76.158 55.6749 19.0492 8.88179e-015 -7.10542e-015 99.4696 3.66245 -109.104 10.3706 -2.13163e-014 2.66453e-015 -58.0908 0.000644263 0.00219404 22.8631 3.55271e-015 8.88178e-016 -17.2333 -0.0380001 -3.19344 6.48257 0.103655 0.504497 -68.7322 -2.18865 -14.2873 3.66843 1e-006 3.03224e-012 34.6071 0.000175337 -9.05228e-005 -0.984392 -4.15266 9.89845 -80.947 77.9603 164.429 19.0492 1.77636e-015 7.10542e-015 78.337 -9.89639 92.8277 10.3706 1e-006 -1.09246e-013 -59.4526 0.000834706 0.00314853 22.8631 -3.55271e-015 4.44089e-015 -13.3553 -8.94542 -8.15052 6.48256 0.103653 -0.504496 -75.9429 0.955882 15.4702 3.66843 1e-006 -3e-006 40.107 6.35805e-005 -4.26752e-005 7.52562 -0.006732 -7.59992e-005 -3.38308 6.31119 -10.4013 8.47688 -0.00645 -7.59988e-005 16.775 6.30171 -10.4071 8.41605 3e-006 -3.12639e-013 -65.5254 23.1016 -6.1236 -7e-006 1e-006 -3e-006 -23.1098 1.37701e-015 90 -6.25857e-007 -0.5 -1.03786e-006 180 90 -90 0 0 0 -113.549 -1.52588e-005 -180 2.8863 13.9448 3.88993 -22.989 1.3702e-015 90 0 0 0 -79.3028 -7.01671e-015 -180 0 0 0 -99.5291 1.35689e-005 -9.66756e-006 0 0 0 110.081 1.69405 -4.57777 0 0 0 3.0074 1.10464e-006 -1.0152e-007 0 0 0 -22.6226 -6.35798e-006 3.18379e-007 0 0 0 -26.1943 -8.65637e-007 3.14376e-006 15.5776 -0.000396 -7.00003e-006 -1.59028e-015 -3.18055e-015 -0 9.40333 1.03973 -6.51766 -18.6345 16.4313 16.2084 2.77018 -0.006404 -5.50003e-005 2.38938 -0.331837 -7.90232 9.40367 1.03969 6.5177 -18.6407 -16.4271 -15.336 2.77016 -0.006404 4.70013e-005 2.37887 0.367425 8.77492 
0 0 -1e-006 -0 -90 -0 -0.262526 -25.6604 50.464 86.482 -3.50174e-015 90 0 0 0 -90 -3.50835e-015 -90 -6.45943 -3.86064 0.440312 137.008 2.16237 -3.94691 10.3793 -0.007213 7.00001e-006 -25.981 -0.495407 4.35095 10.3834 -0.00827 5.71489e-011 -11.7956 0.240366 -1.1508 10.3853 -0.008037 3.50001e-005 16.4612 -1.8826 -6.02185 10.3848 -0.008144 8.00009e-006 13.3655 -0.273039 -1.14905 9e-006 -1.5e-005 -8.75617 -101.702 -11.0467 172.482 19.7638 1.77636e-015 3.55271e-015 -63.9865 0.000163838 0.000818879 18.6534 -3e-006 -4.61853e-014 -28.5402 0.204053 4.51575 5.09143 13.9567 -1.9736e-007 115.174 3.111 1.64969 4.288 0 3.55271e-015 53.6716 8.43266 1.28952 3.85799 -6.66133e-015 0 -45 2.41122e-005 3.84966e-005 -1.5e-005 1.1e-005 8.75617 -113.224 -4.14933 -179.798 19.7638 -8.88178e-015 -8.88179e-016 -65.6981 0.000538829 0.00274594 18.6534 3e-006 1e-006 -27.2993 -0.420524 -8.75186 5.09143 13.9567 -7.66483e-007 115 1.83212e-006 5.00001 4.288 -1e-006 2.84217e-014 51.474 -6.03 0.26355 3.85799 -3.29514e-013 -1e-006 -45 -2.4344e-005 -2.62076e-005 9.1272 -0.006408 -0.622128 2.0168 0.050717 1.44673 8.04366 -0.006404 -3.75928e-010 4.60238e-005 3.5122e-005 -2.45173 8.04362 -0.006401 -1.04146e-009 -2.24817 0.0964728 -2.44984 8.04302 -0.008319 -9.73042e-007 -5.80602 0.403893 -3.9271 10.67 1.06797 1.89447e-006 -18.5346 6.24996 -10.438 -4.22919 -6.12933 -7.79217 140.279 -76.158 55.6769 19.0492 -1.77636e-015 1.42108e-014 99.3217 3.34077 -109.107 10.3706 -7.10543e-015 8.88178e-016 -58.7359 0.000619482 0.00220094 22.8631 -1.06581e-014 0 -17.0622 -0.0478117 -3.18431 6.48257 0.103655 0.504497 -68.7322 -2.18865 -14.2873 3.66843 1e-006 3.04112e-012 34.6071 0.000175388 -9.05646e-005 -0.972227 -4.15557 9.89845 -80.78 77.9603 164.428 19.0492 3.55272e-015 7.10542e-015 78.3043 -9.61448 92.8428 10.3706 1e-006 -1.04805e-013 -60.0089 0.000804075 0.00315641 22.8631 7.10543e-015 -8.88178e-016 -13.2068 -8.94102 -8.16091 6.48256 0.103653 -0.504496 -75.9429 0.955882 15.4702 3.66843 1e-006 -3e-006 40.107 6.35425e-005 -4.2651e-005 7.52562 -0.006732 -7.59991e-005 -3.38308 6.31119 -10.4013 8.47688 -0.00645 -7.59988e-005 16.775 6.30171 -10.4071 8.41605 3e-006 -3.0731e-013 -65.4452 23.1134 -6.14965 -7e-006 1e-006 -3e-006 -23.1098 1.37701e-015 90 -6.25865e-007 -0.5 -1.038e-006 180 90 -90 0 0 0 -113.549 -1.52588e-005 -180 2.8863 13.9448 3.88993 -22.989 1.3702e-015 90 0 0 0 -79.9731 -7.01671e-015 -180 0 0 0 -101.836 1.37543e-005 -9.03601e-006 0 0 0 112.697 1.50683 -4.06875 0 0 0 4.16283 1.53167e-006 -1.13364e-007 0 0 0 -20.4954 -6.27007e-006 9.0654e-009 0 0 0 -26.1943 -1.86995e-006 2.77842e-006 15.5776 -0.000396 -7.00003e-006 7.95139e-016 -1.59028e-015 3.18055e-015 9.40333 1.03973 -6.51766 -18.7618 16.6479 15.2278 2.77018 -0.006404 -5.50002e-005 2.39 -0.329547 -7.84647 9.40367 1.03969 6.5177 -18.769 -16.6429 -13.8434 2.77016 -0.006404 4.70014e-005 2.37293 0.385863 9.23056 
0 0 -1e-006 -0 -90 -0 -0.262526 -25.6509 50.464 86.482 -3.50174e-015 90 0 0 0 -90 -3.50835e-015 -90 -6.45943 -3.86064 0.440312 137.102 2.15839 -3.75244 10.3793 -0.007213 7e-006 -25.8884 -0.483769 4.3418 10.3834 -0.00827 5.22915e-011 -11.5693 0.196677 -0.960607 10.3853 -0.008037 3.50001e-005 16.5581 -1.88034 -5.78067 10.3848 -0.008144 8.00008e-006 13.4586 -0.229948 -0.960805 9e-006 -1.5e-005 -8.75617 -101.593 -11.0629 172.504 19.7638 3.55271e-015 0 -63.9369 0.000164535 0.000818735 18.6534 -3e-006 -4.26326e-014 -28.3234 0.215149 4.51386 5.09143 13.9567 -1.80351e-007 114.987 3.10561 1.65981 4.288 0 -3.55271e-015 53.6716 8.43266 1.28952 3.85799 -3.10862e-015 7.10543e-015 -45 2.41958e-005 3.85633e-005 -1.5e-005 1.1e-005 8.75617 -113.048 -4.14046 -179.799 19.7638 1.77636e-015 4.44089e-015 -65.5199 0.000547367 0.00274425 18.6534 3e-006 1e-006 -27.1435 -0.458197 -8.74318 5.09143 13.9567 -7.60103e-007 115 1.82838e-006 5.00001 4.288 -1e-006 2.13163e-014 51.474 -6.03 0.26355 3.85799 -3.2152e-013 -1e-006 -45 -2.37861e-005 -2.56649e-005 9.1272 -0.006408 -0.622128 1.99216 0.0500948 1.44675 8.04366 -0.006404 -3.72619e-010 4.60249e-005 3.51177e-005 -2.45173 8.04362 -0.006401 -1.03862e-009 -1.93315 0.0824498 -2.45033 8.04302 -0.008319 -1.05196e-006 -5.98682 0.414882 -3.90714 10.67 1.06797 1.8934e-006 -18.6811 6.27677 -10.422 -4.21566 -6.13865 -7.79217 140.407 -76.1575 55.6782 19.0492 0 7.10542e-015 99.2065 3.0921 -109.109 10.3706 7.10543e-015 -3.55271e-015 -59.2375 0.000600159 0.00220611 22.8631 3.55271e-015 2.66453e-015 -16.9265 -0.0560719 -3.1761 6.48257 0.103655 0.504497 -68.7322 -2.18865 -14.2873 3.66843 1e-006 3.01625e-012 34.6071 0.000175093 -9.03646e-005 -0.963018 -4.15771 9.89845 -80.6536 77.9604 164.428 19.0492 -7.10543e-015 7.10542e-015 78.2787 -9.39758 92.8541 10.3706 1e-006 -1.08358e-013 -60.4418 0.000780186 0.00316233 22.8631 -3.55271e-015 -1.77636e-015 -13.0891 -8.93675 -8.16954 6.48256 0.103653 -0.504496 -75.9429 0.955882 15.4702 3.66843 1e-006 -3e-006 40.107 6.34979e-005 -4.26198e-005 7.52562 -0.006732 -7.59991e-005 -3.38308 6.31119 -10.4013 8.47688 -0.00645 -7.59988e-005 16.775 6.30171 -10.4071 8.41605 3e-006 -3.0731e-013 -65.3861 23.1226 -6.17137 -7e-006 1e-006 -3e-006 -23.1098 1.37701e-015 90 -6.25872e-007 -0.5 -1.03813e-006 180 90 -90 0 0 0 -113.549 -1.52588e-005 -180 2.8863 13.9448 3.88993 -22.989 1.3702e-015 90 0 0 0 -80.6434 -7.01671e-015 -180 0 0 0 -104.143 -1.25717e-005 -1.50682e-005 0 0 0 115.315 1.31925 -3.55986 0 0 0 5.3183 1.94877e-006 -1.10406e-007 0 0 0 -18.3683 -5.98165e-006 -2.4036e-007 0 0 0 -26.1943 -2.95432e-006 2.32087e-006 15.5776 -0.000396 -7.00003e-006 3.18055e-015 -1.59028e-015 -6.36111e-015 9.40333 1.03973 -6.51766 -18.8849 16.8657 14.2496 2.77018 -0.006404 -5.50002e-005 2.39065 -0.327268 -7.79081 9.40367 1.03969 6.5177 -18.8911 -16.8611 -12.3541 2.77016 -0.006404 4.70014e-005 2.36673 0.404149 9.68481 
